# This file uses centimeters as units for non-parametric coordinates.

mtllib IceSpike.mtl
g default
v 0.817062 0.799652 4.012329
v 0.688339 0.983398 3.973999
v 0.486389 1.064362 3.925964
v 0.248638 1.125122 3.897705
v 0.003523 1.174683 3.895874
v -0.225945 1.192566 3.916199
v -0.421585 1.154846 3.950562
v -0.569611 1.076996 3.999634
v -0.680107 0.841309 4.024231
v -0.765060 -1.027405 4.208069
v -0.742722 -1.064880 4.074707
v -0.633881 -1.083557 3.997986
v -0.461891 -1.097351 3.936829
v -0.243584 -1.105103 3.897217
v 0.000000 -1.136444 3.890930
v 0.225590 -1.158356 3.907227
v 0.433178 -1.190125 3.954102
v 0.603065 -1.192566 4.018066
v 0.712776 -1.161499 4.090576
v 0.822815 0.264771 3.962524
v 0.625618 -1.044800 4.901672
v -1.000916 -0.601837 5.069214
v 0.335369 0.180969 -2.091064
v -0.217793 -0.771851 -0.489616
v -0.526581 0.495117 -0.603058
v -0.211842 0.379944 6.679932
v 0.968262 0.258545 4.911133
v 0.597679 -0.162964 -0.209595
v -0.474327 -0.285706 -1.315948
v 0.096439 0.547241 -1.938507
v 0.403496 0.669556 -0.201176
v 0.154255 -0.504486 -2.052887
v 0.160370 0.899902 -0.711090
v -0.108353 0.847412 -0.415020
v -0.319035 -1.144531 4.822205
v -0.252983 0.318726 -2.140717
v -0.261356 -0.318481 6.972656
v 0.201799 -0.814362 -0.248615
v -0.373592 1.010620 4.879883
v -0.263741 -0.295044 -2.094452
v 0.671440 1.004761 4.910645
vt 0.401715 0.230761
vt 0.531841 0.655909
vt 0.525656 0.664666
vt 0.369619 0.644960
vt 0.346666 0.643677
vt 0.331686 0.638759
vt 0.347512 0.241697
vt 0.313742 0.635344
vt 0.292760 0.633311
vt 0.292063 0.248487
vt 0.269547 0.633739
vt 0.246073 0.636796
vt 0.225014 0.640236
vt 0.659579 0.245996
vt 0.862615 0.662365
vt 0.840902 0.670222
vt 0.783859 0.678022
vt 0.661956 0.663916
vt 0.651335 0.654161
vt 0.582768 0.257508
vt 0.635989 0.644642
vt 0.617552 0.638215
vt 0.539752 0.239044
vt 0.597204 0.635595
vt 0.575385 0.636601
vt 0.556907 0.641558
vt 0.486144 0.163477
vt 0.541406 0.648975
vt 0.203268 0.647512
vt 0.243734 0.752655
vt 0.343194 0.724500
vt 0.496270 0.734483
vt 0.565169 0.716387
vt 0.639737 0.738819
vt 0.731012 0.818467
vt 0.577662 0.077937
vt 0.583097 0.031222
vt 0.634745 0.004240
vt 0.495083 0.919907
vt 0.562601 0.963179
vt 0.649257 0.060583
vt 0.738181 0.225449
vt 0.415715 0.075438
vt 0.363634 0.089527
vt 0.334490 0.208257
vt 0.325882 0.059216
vt 0.509326 0.080240
vt 0.671507 0.023066
vt 0.418513 0.899400
vt 0.776326 0.891569
vt 0.401715 0.230761
vt 0.525656 0.664666
vt 0.401715 0.230761
vt 0.369619 0.644960
vt 0.401715 0.230761
vt 0.346666 0.643677
vt 0.331686 0.638759
vt 0.347512 0.241697
vt 0.313742 0.635344
vt 0.292760 0.633311
vt 0.292063 0.248487
vt 0.269547 0.633739
vt 0.292063 0.248487
vt 0.246073 0.636796
vt 0.659579 0.245996
vt 0.840902 0.670222
vt 0.659579 0.245996
vt 0.783859 0.678022
vt 0.659579 0.245996
vt 0.661956 0.663916
vt 0.651335 0.654161
vt 0.582768 0.257508
vt 0.635989 0.644642
vt 0.617552 0.638215
vt 0.539752 0.239044
vt 0.597204 0.635595
vt 0.539752 0.239044
vt 0.575385 0.636601
vt 0.556907 0.641558
vt 0.486144 0.163477
vt 0.541406 0.648975
vt 0.531841 0.655909
vt 0.225014 0.640236
vt 0.225014 0.640236
vt 0.246073 0.636796
vt 0.243734 0.752655
vt 0.246073 0.636796
vt 0.269547 0.633739
vt 0.269547 0.633739
vt 0.292760 0.633311
vt 0.292760 0.633311
vt 0.313742 0.635344
vt 0.343194 0.724500
vt 0.313742 0.635344
vt 0.331686 0.638759
vt 0.343194 0.724500
vt 0.331686 0.638759
vt 0.346666 0.643677
vt 0.343194 0.724500
vt 0.346666 0.643677
vt 0.369619 0.644960
vt 0.369619 0.644960
vt 0.525656 0.664666
vt 0.496270 0.734483
vt 0.525656 0.664666
vt 0.531841 0.655909
vt 0.496270 0.734483
vt 0.531841 0.655909
vt 0.541406 0.648975
vt 0.496270 0.734483
vt 0.541406 0.648975
vt 0.556907 0.641558
vt 0.556907 0.641558
vt 0.575385 0.636601
vt 0.565169 0.716387
vt 0.575385 0.636601
vt 0.597204 0.635595
vt 0.565169 0.716387
vt 0.597204 0.635595
vt 0.617552 0.638215
vt 0.617552 0.638215
vt 0.635989 0.644642
vt 0.639737 0.738819
vt 0.635989 0.644642
vt 0.651335 0.654161
vt 0.639737 0.738819
vt 0.651335 0.654161
vt 0.661956 0.663916
vt 0.639737 0.738819
vt 0.661956 0.663916
vt 0.783859 0.678022
vt 0.783859 0.678022
vt 0.840902 0.670222
vt 0.731012 0.818467
vt 0.346666 0.643677
vt 0.496270 0.734483
vt 0.343194 0.724500
vt 0.541406 0.648975
vt 0.565169 0.716387
vt 0.496270 0.734483
vt 0.582768 0.257508
vt 0.659579 0.245996
vt 0.651335 0.654161
vt 0.347512 0.241697
vt 0.401715 0.230761
vt 0.331686 0.638759
vt 0.486144 0.163477
vt 0.539752 0.239044
vt 0.556907 0.641558
vt 0.343194 0.724500
vt 0.496270 0.734483
vt 0.661956 0.663916
vt 0.731012 0.818467
vt 0.639737 0.738819
vt 0.639737 0.738819
vt 0.731012 0.818467
vt 0.246073 0.636796
vt 0.343194 0.724500
vt 0.243734 0.752655
vt 0.577662 0.077937
vt 0.659579 0.245996
vt 0.659579 0.245996
vt 0.862615 0.662365
vt 0.486144 0.163477
vt 0.401715 0.230761
vt 0.401715 0.230761
vt 0.486144 0.163477
vt 0.531841 0.655909
vt 0.649257 0.060583
vt 0.577662 0.077937
vt 0.634745 0.004240
vt 0.649257 0.060583
vt 0.738181 0.225449
vt 0.659579 0.245996
vt 0.401715 0.230761
vt 0.363634 0.089527
vt 0.334490 0.208257
vt 0.577662 0.077937
vt 0.539752 0.239044
vt 0.539752 0.239044
vt 0.582768 0.257508
vt 0.617552 0.638215
vt 0.325882 0.059216
vt 0.334490 0.208257
vt 0.292063 0.248487
vt 0.292063 0.248487
vt 0.347512 0.241697
vt 0.292760 0.633311
vt 0.334490 0.208257
vt 0.347512 0.241697
vt 0.292063 0.248487
vt 0.334490 0.208257
vt 0.401715 0.230761
vt 0.347512 0.241697
vt 0.597204 0.635595
vt 0.639737 0.738819
vt 0.565169 0.716387
vt 0.639737 0.738819
vt 0.562601 0.963179
vt 0.495083 0.919907
vt 0.363634 0.089527
vt 0.415715 0.075438
vt 0.401715 0.230761
vt 0.649257 0.060583
vt 0.634745 0.004240
vt 0.496270 0.734483
vt 0.565169 0.716387
vt 0.495083 0.919907
vt 0.565169 0.716387
vt 0.639737 0.738819
vt 0.495083 0.919907
vt 0.577662 0.077937
vt 0.582768 0.257508
vt 0.539752 0.239044
vt 0.577662 0.077937
vt 0.659579 0.245996
vt 0.582768 0.257508
vt 0.243734 0.752655
vt 0.343194 0.724500
vt 0.343194 0.724500
vt 0.495083 0.919907
vt 0.418513 0.899400
vt 0.509326 0.080240
vt 0.539752 0.239044
vt 0.486144 0.163477
vt 0.415715 0.075438
vt 0.509326 0.080240
vt 0.486144 0.163477
vt 0.731012 0.818467
vt 0.562601 0.963179
vt 0.840902 0.670222
vt 0.776326 0.891569
vn 0.058648 0.003379 0.998273
vn 0.058648 0.003379 0.998273
vn 0.058648 0.003379 0.998273
vn 0.058648 0.003379 0.998273
vn 0.058648 0.003379 0.998273
vn 0.058648 0.003379 0.998273
vn 0.058648 0.003379 0.998273
vn 0.058648 0.003379 0.998273
vn 0.058648 0.003379 0.998273
vn 0.058648 0.003379 0.998273
vn 0.058648 0.003379 0.998273
vn 0.058648 0.003379 0.998273
vn 0.058648 0.003379 0.998273
vn 0.058648 0.003379 0.998273
vn 0.058648 0.003379 0.998273
vn 0.058648 0.003379 0.998273
vn 0.058648 0.003379 0.998273
vn 0.058648 0.003379 0.998273
vn 0.058648 0.003379 0.998273
vn 0.058648 0.003379 0.998273
vn -0.975221 -0.192405 -0.109203
vn -0.975221 -0.192405 -0.109203
vn -0.975221 -0.192405 -0.109203
vn -0.998467 0.041824 -0.036257
vn -0.998467 0.041824 -0.036257
vn -0.998467 0.041824 -0.036257
vn -0.906210 0.418353 -0.061359
vn -0.906210 0.418353 -0.061359
vn -0.906210 0.418353 -0.061359
vn -0.491579 0.863373 -0.113746
vn -0.491579 0.863373 -0.113746
vn -0.491579 0.863373 -0.113746
vn -0.202804 0.975674 -0.083255
vn -0.202804 0.975674 -0.083255
vn -0.202804 0.975674 -0.083255
vn 0.070771 0.994491 -0.077332
vn 0.070771 0.994491 -0.077332
vn 0.070771 0.994491 -0.077332
vn 0.197783 0.975040 -0.100893
vn 0.197783 0.975040 -0.100893
vn 0.197783 0.975040 -0.100893
vn 0.257517 0.961379 -0.097133
vn 0.257517 0.961379 -0.097133
vn 0.257517 0.961379 -0.097133
vn 0.389586 0.916030 -0.095460
vn 0.389586 0.916030 -0.095460
vn 0.389586 0.916030 -0.095460
vn 0.823525 0.542311 -0.166450
vn 0.823525 0.542311 -0.166450
vn 0.823525 0.542311 -0.166450
vn 0.998332 0.015904 -0.055498
vn 0.998332 0.015904 -0.055498
vn 0.998332 0.015904 -0.055498
vn 0.995686 -0.080901 -0.045437
vn 0.995686 -0.080901 -0.045437
vn 0.995686 -0.080901 -0.045437
vn 0.396536 -0.891833 -0.217701
vn 0.396536 -0.891833 -0.217701
vn 0.396536 -0.891833 -0.217701
vn 0.019471 -0.995742 -0.090109
vn 0.019471 -0.995742 -0.090109
vn 0.019471 -0.995742 -0.090109
vn -0.132955 -0.987806 -0.081004
vn -0.132955 -0.987806 -0.081004
vn -0.132955 -0.987806 -0.081004
vn -0.090344 -0.992842 -0.078120
vn -0.090344 -0.992842 -0.078120
vn -0.090344 -0.992842 -0.078120
vn -0.129454 -0.988679 -0.075866
vn -0.129454 -0.988679 -0.075866
vn -0.129454 -0.988679 -0.075866
vn -0.049306 -0.995892 -0.075943
vn -0.049306 -0.995892 -0.075943
vn -0.049306 -0.995892 -0.075943
vn -0.132257 -0.979638 -0.151058
vn -0.132257 -0.979638 -0.151058
vn -0.132257 -0.979638 -0.151058
vn -0.269856 -0.951006 -0.150880
vn -0.269856 -0.951006 -0.150880
vn -0.269856 -0.951006 -0.150880
vn 0.818742 0.574159 0.001683
vn 0.818742 0.574159 0.001683
vn 0.818742 0.574159 0.001683
vn 0.374951 0.926933 -0.014374
vn 0.374951 0.926933 -0.014374
vn 0.374952 0.926933 -0.014374
vn 0.212682 0.945914 0.244976
vn 0.212682 0.945914 0.244976
vn 0.212682 0.945914 0.244976
vn 0.191307 0.953660 0.232236
vn 0.191307 0.953660 0.232236
vn 0.191307 0.953660 0.232236
vn 0.093633 0.975610 0.198541
vn 0.093633 0.975610 0.198541
vn 0.093633 0.975610 0.198541
vn -0.159781 0.974191 0.159443
vn -0.159781 0.974191 0.159443
vn -0.159781 0.974191 0.159443
vn -0.417156 0.894571 0.160384
vn -0.417156 0.894571 0.160384
vn -0.417155 0.894572 0.160384
vn -0.839596 0.428434 0.333951
vn -0.839596 0.428434 0.333951
vn -0.839596 0.428434 0.333951
vn -0.962171 0.016990 -0.271916
vn -0.962171 0.016990 -0.271916
vn -0.962171 0.016990 -0.271916
vn 0.894905 0.445592 0.024361
vn 0.894905 0.445592 0.024361
vn 0.894905 0.445592 0.024361
vn 0.168124 -0.876245 0.451585
vn 0.168124 -0.876245 0.451585
vn 0.168124 -0.876245 0.451585
vn -0.093530 -0.994892 -0.037963
vn -0.093530 -0.994892 -0.037963
vn -0.093530 -0.994892 -0.037963
vn -0.043478 -0.997990 -0.046113
vn -0.043478 -0.997990 -0.046113
vn -0.043478 -0.997990 -0.046113
vn -0.129030 -0.990239 -0.052714
vn -0.129030 -0.990239 -0.052714
vn -0.129030 -0.990239 -0.052714
vn -0.106234 -0.982180 0.155036
vn -0.106234 -0.982180 0.155036
vn -0.106234 -0.982180 0.155036
vn -0.189967 -0.963945 0.186341
vn -0.189967 -0.963945 0.186341
vn -0.189967 -0.963945 0.186341
vn -0.076682 -0.983079 0.166360
vn -0.076682 -0.983079 0.166360
vn -0.076682 -0.983079 0.166360
vn 0.170654 -0.972535 0.158279
vn 0.170654 -0.972535 0.158279
vn 0.170654 -0.972535 0.158279
vn 0.984389 -0.089553 -0.151524
vn 0.984389 -0.089553 -0.151524
vn 0.984389 -0.089553 -0.151524
vn 0.988173 0.024718 -0.151337
vn 0.988173 0.024718 -0.151337
vn 0.988173 0.024718 -0.151337
vn -0.897985 0.376153 0.228323
vn -0.897985 0.376153 0.228323
vn -0.897985 0.376153 0.228323
vn -0.578015 -0.799858 0.161635
vn -0.578015 -0.799858 0.161635
vn -0.578015 -0.799858 0.161635
vn 0.851156 -0.509756 -0.125230
vn 0.851156 -0.509756 -0.125230
vn 0.851156 -0.509756 -0.125230
vn -0.614615 0.782564 -0.099207
vn -0.614615 0.782564 -0.099207
vn -0.614615 0.782564 -0.099207
vn -0.812186 -0.576844 -0.087209
vn -0.812186 -0.576844 -0.087210
vn -0.812186 -0.576844 -0.087210
vn 0.060834 -0.076086 -0.995244
vn 0.060834 -0.076086 -0.995244
vn 0.060834 -0.076086 -0.995244
vn -0.881100 0.376415 0.286313
vn -0.881100 0.376415 0.286313
vn -0.881100 0.376415 0.286313
vn 0.957465 -0.252725 0.139249
vn 0.957465 -0.252725 0.139249
vn 0.957465 -0.252725 0.139249
vn 0.805379 -0.215728 0.552110
vn 0.805379 -0.215728 0.552110
vn 0.805379 -0.215728 0.552110
vn 0.003870 0.998209 0.059698
vn 0.003870 0.998209 0.059698
vn 0.003870 0.998209 0.059698
vn 0.948534 -0.260629 -0.179877
vn 0.948534 -0.260629 -0.179877
vn 0.948534 -0.260629 -0.179877
vn 0.970293 0.227153 -0.083269
vn 0.970293 0.227153 -0.083269
vn 0.970293 0.227153 -0.083269
vn -0.977040 0.104256 -0.185806
vn -0.977040 0.104256 -0.185806
vn -0.977040 0.104256 -0.185806
vn -0.998444 -0.018933 -0.052450
vn -0.998444 -0.018933 -0.052450
vn -0.998444 -0.018933 -0.052450
vn 0.066870 -0.073089 -0.995081
vn 0.066870 -0.073089 -0.995081
vn 0.066870 -0.073089 -0.995081
vn 0.969369 0.227056 -0.093645
vn 0.969369 0.227056 -0.093645
vn 0.969369 0.227056 -0.093645
vn -0.520636 0.827395 -0.210608
vn -0.520636 0.827395 -0.210608
vn -0.520636 0.827395 -0.210608
vn 0.776082 0.594230 -0.211158
vn 0.776082 0.594230 -0.211158
vn 0.776082 0.594230 -0.211158
vn -0.414139 -0.875687 -0.248316
vn -0.414139 -0.875687 -0.248316
vn -0.414139 -0.875687 -0.248316
vn -0.053681 -0.995180 -0.082067
vn -0.053681 -0.995180 -0.082067
vn -0.053681 -0.995180 -0.082067
vn 0.838090 0.520086 -0.164668
vn 0.838090 0.520086 -0.164668
vn 0.838090 0.520086 -0.164668
vn 0.356793 0.930759 -0.079920
vn 0.356793 0.930759 -0.079920
vn 0.356793 0.930759 -0.079920
vn 0.183425 0.925742 0.330691
vn 0.183425 0.925742 0.330691
vn 0.183425 0.925742 0.330691
vn -0.517274 0.789877 -0.329427
vn -0.517274 0.789877 -0.329427
vn -0.517274 0.789877 -0.329427
vn 0.102729 -0.994355 0.026563
vn 0.102729 -0.994355 0.026563
vn 0.102729 -0.994355 0.026563
vn 0.926453 0.087732 0.366044
vn 0.926453 0.087732 0.366044
vn 0.926453 0.087732 0.366043
vn -0.462301 0.867881 -0.181826
vn -0.462301 0.867881 -0.181826
vn -0.462301 0.867881 -0.181826
vn 0.184381 0.477984 -0.858799
vn 0.184381 0.477984 -0.858799
vn 0.184381 0.477984 -0.858799
vn -0.516791 -0.794448 0.319029
vn -0.516791 -0.794448 0.319029
vn -0.516791 -0.794448 0.319029
vn 0.068474 -0.931920 0.356142
vn 0.068474 -0.931920 0.356142
vn 0.068474 -0.931920 0.356142
vn -0.002582 -0.985579 -0.169198
vn -0.002582 -0.985579 -0.169198
vn -0.002582 -0.985579 -0.169198
vn 0.852265 -0.511354 -0.110281
vn 0.852265 -0.511354 -0.110281
vn 0.852265 -0.511354 -0.110281
vn -0.004421 0.943617 0.331011
vn -0.004421 0.943617 0.331011
vn -0.004421 0.943617 0.331011
vn -0.983297 0.125111 0.132189
vn -0.983297 0.125111 0.132189
vn -0.983297 0.125111 0.132189
vn -0.706466 -0.683704 -0.182905
vn -0.706466 -0.683704 -0.182905
vn -0.706466 -0.683704 -0.182905
vn -0.965314 -0.002761 -0.261076
vn -0.965314 -0.002761 -0.261076
vn -0.965314 -0.002761 -0.261076
vn 0.798575 0.318017 0.511022
vn 0.798575 0.318017 0.511022
vn 0.798575 0.318017 0.511022
vn 0.927139 0.368845 0.066084
vn 0.927139 0.368845 0.066084
vn 0.927139 0.368845 0.066084
s off
g IceSpike:Mesh
usemtl initialShadingGroup
f 20/1/1 1/2/2 2/3/3 3/51/4 4/52/5 5/4/6 6/53/7 7/54/8 8/5/9 9/55/10 10/56/11 11/6/12 12/7/13 13/57/14 14/8/15 15/58/16 16/59/17 17/9/18 18/10/19 19/60/20
f 25/11/21 11/61/22 10/62/23
f 25/12/24 10/63/25 9/64/26
f 25/13/27 9/14/28 8/15/29
f 25/16/30 8/65/31 7/66/32
f 34/17/33 7/67/34 6/68/35
f 34/18/36 6/69/37 5/70/38
f 31/19/39 5/20/40 4/71/41
f 31/21/42 4/72/43 3/73/44
f 31/22/45 3/23/46 2/74/47
f 28/24/48 2/75/49 1/76/50
f 28/25/51 1/77/52 20/78/53
f 28/26/54 20/27/55 19/79/56
f 28/28/57 19/80/58 18/81/59
f 38/82/60 18/29/61 17/83/62
f 38/30/63 17/84/64 16/85/65
f 24/86/66 16/87/67 15/88/68
f 24/31/69 15/89/70 14/90/71
f 24/31/72 14/91/73 13/92/74
f 29/93/75 13/94/76 12/95/77
f 29/96/78 12/97/79 11/98/80
f 1/99/81 2/100/82 41/101/83
f 2/32/84 3/102/85 41/103/86
f 3/104/87 4/105/88 39/106/89
f 4/107/90 5/108/91 39/109/92
f 5/110/93 6/111/94 39/112/95
f 6/33/96 7/113/97 39/114/98
f 7/115/99 8/116/100 39/117/101
f 8/118/102 9/119/103 22/120/104
f 9/34/105 10/121/106 22/122/107
f 10/123/108 11/124/109 22/125/110
f 11/126/111 12/127/112 22/128/113
f 12/129/114 13/130/115 35/131/116
f 13/35/117 14/132/118 35/133/119
f 14/134/120 15/135/121 35/136/122
f 15/137/123 16/138/124 21/139/125
f 16/140/126 17/141/127 21/142/128
f 17/143/129 18/144/130 21/145/131
f 18/146/132 19/147/133 21/148/134
f 19/149/135 20/36/136 27/37/137
f 20/38/138 1/150/139 27/151/140
f 8/39/141 22/152/142 39/153/143
f 12/154/144 35/155/145 22/156/146
f 38/40/147 28/157/148 18/158/149
f 34/159/150 25/160/151 7/41/152
f 29/161/153 24/162/154 13/42/155
f 32/163/156 40/43/157 36/164/158
f 39/165/159 22/166/160 37/167/161
f 19/168/162 27/169/163 21/170/164
f 21/171/165 27/172/166 26/173/167
f 3/174/168 39/44/169 41/175/170
f 32/45/171 23/46/172 28/176/173
f 28/177/174 31/47/175 2/178/176
f 36/179/177 29/180/178 25/181/179
f 25/182/180 29/183/181 11/184/182
f 23/185/183 32/186/184 36/187/185
f 23/188/186 31/189/187 28/190/188
f 30/191/189 25/192/190 33/193/191
f 23/194/192 30/195/193 33/196/194
f 40/197/195 32/198/196 24/199/197
f 24/200/198 38/201/199 16/202/200
f 23/203/201 33/204/202 31/205/203
f 31/48/204 34/206/205 5/207/206
f 33/208/207 34/209/208 31/210/209
f 33/211/210 25/212/211 34/213/212
f 15/214/213 21/215/214 35/216/215
f 21/217/216 26/218/217 37/219/218
f 30/49/219 36/220/220 25/221/221
f 23/222/222 36/223/223 30/224/224
f 22/225/225 35/226/226 37/227/227
f 35/228/228 21/229/229 37/50/230
f 32/230/231 38/231/232 24/232/233
f 32//234 28//235 38//236
f 41//237 39//238 26//239
f 39//240 37//241 26//242
f 40//243 24//244 29//245
f 36//246 40//247 29//248
f 27//249 41//250 26//251
f 1//252 41//253 27//254
